<svg width="512" height="512" viewBox="0 0 512 512" fill="none" xmlns="http://www.w3.org/2000/svg">
  <!-- Background Circle -->
  <circle cx="256" cy="256" r="240" fill="#F8F9FF"/>
  
  <!-- Location Pin Base -->
  <path d="M256 120C209.6 120 172 157.6 172 204C172 250.4 256 392 256 392C256 392 340 250.4 340 204C340 157.6 302.4 120 256 120ZM256 236C238.3 236 224 221.7 224 204C224 186.3 238.3 172 256 172C273.7 172 288 186.3 288 204C288 221.7 273.7 236 256 236Z" fill="#6B73FF"/>
  
  <!-- People Silhouettes -->
  <circle cx="180" cy="320" r="32" fill="#8B9AFF"/>
  <path d="M180 360C153.5 360 132 381.5 132 408V416H228V408C228 381.5 206.5 360 180 360Z" fill="#8B9AFF"/>
  
  <circle cx="256" cy="320" r="32" fill="#6B73FF"/>
  <path d="M256 360C229.5 360 208 381.5 208 408V416H304V408C304 381.5 282.5 360 256 360Z" fill="#6B73FF"/>
  
  <circle cx="332" cy="320" r="32" fill="#B4C5FF"/>
  <path d="M332 360C305.5 360 284 381.5 284 408V416H380V408C380 381.5 358.5 360 332 360Z" fill="#B4C5FF"/>
  
  <!-- Connection Lines -->
  <line x1="180" y1="320" x2="256" y2="320" stroke="#B4C5FF" stroke-width="6" stroke-linecap="round"/>
  <line x1="256" y1="320" x2="332" y2="320" stroke="#B4C5FF" stroke-width="6" stroke-linecap="round"/>
  
  <!-- App Name -->
  <path d="M140 440H160C163.3 440 166 442.7 166 446V450C166 453.3 163.3 456 160 456H140C136.7 456 134 453.3 134 450V446C134 442.7 136.7 440 140 440Z" fill="#2C3E50"/>
  <path d="M170 440H190C193.3 440 196 442.7 196 446V450C196 453.3 193.3 456 190 456H170C166.7 456 164 453.3 164 450V446C164 442.7 166.7 440 170 440Z" fill="#2C3E50"/>
  <path d="M200 440H220C223.3 440 226 442.7 226 446V450C226 453.3 223.3 456 220 456H200C196.7 456 194 453.3 194 450V446C194 442.7 196.7 440 200 440Z" fill="#2C3E50"/>
  <path d="M230 440H250C253.3 440 256 442.7 256 446V450C256 453.3 253.3 456 250 456H230C226.7 456 224 453.3 224 450V446C224 442.7 226.7 440 230 440Z" fill="#2C3E50"/>
  <path d="M260 440H280C283.3 440 286 442.7 286 446V450C286 453.3 283.3 456 280 456H260C256.7 456 254 453.3 254 450V446C254 442.7 256.7 440 260 440Z" fill="#2C3E50"/>
  <path d="M290 440H310C313.3 440 316 442.7 316 446V450C316 453.3 313.3 456 310 456H290C286.7 456 284 453.3 284 450V446C284 442.7 286.7 440 290 440Z" fill="#2C3E50"/>
  <path d="M320 440H340C343.3 440 346 442.7 346 446V450C346 453.3 343.3 456 340 456H320C316.7 456 314 453.3 314 450V446C314 442.7 316.7 440 320 440Z" fill="#2C3E50"/>
  <path d="M350 440H370C373.3 440 376 442.7 376 446V450C376 453.3 373.3 456 370 456H350C346.7 456 344 453.3 344 450V446C344 442.7 346.7 440 350 440Z" fill="#2C3E50"/>
</svg>